<svg width="17" height="11" viewBox="0 0 17 11" fill="none" xmlns="http://www.w3.org/2000/svg">
<path d="M8.49999 3.375C9.06358 3.375 9.60408 3.59888 10.0026 3.9974C10.4011 4.39591 10.625 4.93641 10.625 5.5C10.625 6.06358 10.4011 6.60409 10.0026 7.0026C9.60408 7.40112 9.06358 7.625 8.49999 7.625C7.93641 7.625 7.39591 7.40112 6.99739 7.0026C6.59888 6.60409 6.37499 6.06358 6.37499 5.5C6.37499 4.93641 6.59888 4.39591 6.99739 3.9974C7.39591 3.59888 7.93641 3.375 8.49999 3.375ZM8.49999 0.1875C12.0417 0.1875 15.0662 2.39042 16.2917 5.5C15.0662 8.60958 12.0417 10.8125 8.49999 10.8125C4.95833 10.8125 1.93374 8.60958 0.708328 5.5C1.93374 2.39042 4.95833 0.1875 8.49999 0.1875ZM2.25249 5.5C2.82501 6.66897 3.714 7.65386 4.81842 8.34272C5.92283 9.03158 7.19836 9.39677 8.49999 9.39677C9.80163 9.39677 11.0772 9.03158 12.1816 8.34272C13.286 7.65386 14.175 6.66897 14.7475 5.5C14.175 4.33103 13.286 3.34614 12.1816 2.65728C11.0772 1.96842 9.80163 1.60323 8.49999 1.60323C7.19836 1.60323 5.92283 1.96842 4.81842 2.65728C3.714 3.34614 2.82501 4.33103 2.25249 5.5Z" fill="black"/>
</svg>
